<svg width="64" height="64" viewBox="0 0 64 64" fill="none" xmlns="http://www.w3.org/2000/svg">
<g clip-path="url(#clip0_902_191)">
<path d="M61.0082 0.165039H2.99221C1.43327 0.165039 0.165039 1.43313 0.165039 2.99174V61.0081C0.165039 62.5667 1.43327 63.835 2.99221 63.835H61.0082C62.5668 63.835 63.8349 62.5667 63.8349 61.0081V2.99174C63.8349 1.43313 62.5668 0.165039 61.0082 0.165039ZM61.0082 61.5992H2.99221C2.66609 61.5992 2.40081 61.3341 2.40081 61.0081V53.9964L23.3118 33.0852L43.628 53.4017C43.8464 53.6199 44.1324 53.729 44.4186 53.729C44.7046 53.729 44.9908 53.6199 45.2091 53.4017C45.6456 52.965 45.6456 52.2573 45.2091 51.8206L24.1023 30.7139C23.884 30.4955 23.5979 30.3864 23.3119 30.3865C23.0258 30.3864 22.7397 30.4956 22.5214 30.7139L2.40081 50.8343V2.99174C2.40081 2.66595 2.66609 2.40084 2.99221 2.40084H61.0082C61.334 2.40084 61.5991 2.66595 61.5991 2.99174V50.3776L41.9355 30.7139C41.8536 30.632 41.7622 30.5656 41.6648 30.5143C41.2432 30.2926 40.7091 30.3592 40.3544 30.7139L35.9628 35.1057C35.5263 35.5423 35.5263 36.25 35.963 36.6867C36.1812 36.9049 36.4674 37.014 36.7533 37.014C37.0393 37.014 37.3255 36.9049 37.5438 36.6865L41.1449 33.0853L61.4611 53.4017C61.5044 53.4449 61.5511 53.4828 61.5991 53.5174V61.0081C61.5992 61.3341 61.3341 61.5992 61.0082 61.5992Z" fill="white"/>
<path d="M38.7154 19.917C38.7154 16.445 35.8908 13.6201 32.4188 13.6201C28.9467 13.6201 26.1221 16.4449 26.1221 19.917C26.1221 23.3891 28.9467 26.2137 32.4188 26.2137C35.8908 26.2137 38.7154 23.389 38.7154 19.917ZM32.4188 23.978C30.1795 23.978 28.3579 22.1562 28.3579 19.917C28.3579 17.6776 30.1796 15.8559 32.4188 15.8559C34.6579 15.8559 36.4797 17.6776 36.4797 19.917C36.4797 22.1562 34.658 23.978 32.4188 23.978Z" fill="white"/>
</g>
<defs>
<clipPath id="clip0_902_191">
<rect width="64" height="64" fill="white"/>
</clipPath>
</defs>
</svg>
