<svg width="64" height="64" viewBox="0 0 64 64" fill="none" xmlns="http://www.w3.org/2000/svg">
<path d="M33.9756 16.7093C34.0108 16.2986 33.8166 15.8841 33.44 15.6563C33.2472 15.5397 33.0312 15.4885 32.8243 15.4954C32.4007 15.5077 32.0363 15.7556 31.8572 16.1126L21.9115 32.5544C21.7026 32.8998 21.6959 33.3307 21.8941 33.6823C22.0924 34.0339 22.4646 34.2513 22.8682 34.2513H28.9942V48.4719C28.9942 48.9761 29.3319 49.4181 29.8186 49.5508C29.9161 49.5773 30.0148 49.59 30.1123 49.59C30.5013 49.59 30.8716 49.3863 31.076 49.0388L42.0946 30.3067C42.298 29.961 42.3007 29.5329 42.1015 29.1847C41.9025 28.8365 41.532 28.6217 41.1309 28.6217H33.9756V16.7093ZM39.176 30.858L31.2305 44.3656V33.1331C31.2305 32.5154 30.7299 32.015 30.1123 32.015H24.8513L31.7393 20.6282V29.7399C31.7393 30.3574 32.2399 30.858 32.8575 30.858H39.176V30.858Z" fill="white"/>
<path d="M53.5903 9.88692H41.2642V1.18818C41.2642 0.570619 40.7637 0.0700684 40.1461 0.0700684H23.8534C23.2358 0.0700684 22.7352 0.570655 22.7352 1.18818V9.88692H10.4091C9.79157 9.88692 9.29102 10.3875 9.29102 11.005V62.8116C9.29102 63.4293 9.79157 63.9298 10.4091 63.9298H53.5904C54.2079 63.9298 54.7085 63.4293 54.7085 62.8116V11.0051C54.7085 10.3875 54.2079 9.88692 53.5903 9.88692ZM24.9715 2.30633H39.028V9.88695H24.9715V2.30633ZM52.4722 61.6935H11.5272V55.219H52.4722V61.6935ZM52.4722 52.9828H11.5272V12.1232H23.8534H40.1461H52.4722V52.9828Z" fill="white"/>
</svg>
