<svg width="39" height="39" viewBox="0 0 39 39" fill="none" xmlns="http://www.w3.org/2000/svg">
<path fill-rule="evenodd" clip-rule="evenodd" d="M0 2.54422C0 1.48453 0.871143 0.625488 1.94575 0.625488H36.9693C38.0439 0.625488 38.915 1.48453 38.915 2.54422V37.0813C38.915 38.141 38.0439 39 36.9693 39H1.94575C0.871143 39 0 38.141 0 37.0813V2.54422ZM15.7789 19.8219V28.9291H11.1189V10.4191C11.1189 10.3296 11.1461 10.2669 11.2006 10.2311C11.2551 10.1952 11.355 10.24 11.5004 10.3654L23.1367 19.8219V10.6609H27.7967V29.1978C27.7967 29.3053 27.7695 29.3724 27.715 29.3993C27.6605 29.4262 27.5606 29.3769 27.4152 29.2515L15.7789 19.8219ZM27.7967 31.931H11.1189V33.4458H27.7967V31.931Z" fill="#0065CB"/>
</svg>
