<svg width="64" height="64" viewBox="0 0 64 64" fill="none" xmlns="http://www.w3.org/2000/svg">
<path d="M22.6719 48.8281C22.0549 48.8281 21.5547 48.3279 21.5547 47.7109V29.6678C21.5547 29.0507 22.0549 28.5505 22.6719 28.5505C23.289 28.5505 23.7892 29.0507 23.7892 29.6678V47.7109C23.7892 48.3279 23.289 48.8281 22.6719 48.8281Z" fill="white"/>
<path d="M22.5225 48.8282C22.2366 48.8282 21.9508 48.719 21.7326 48.5011L15.3272 42.0961C14.891 41.6598 14.8909 40.9524 15.3272 40.5161C15.7635 40.0797 16.4708 40.0798 16.9072 40.5159L23.3125 46.9209C23.7488 47.3572 23.7489 48.0646 23.3125 48.5009C23.0944 48.7191 22.8085 48.8282 22.5225 48.8282Z" fill="white"/>
<path d="M22.8213 48.8281C22.5354 48.8281 22.2495 48.719 22.0313 48.5008C21.595 48.0645 21.5951 47.3571 22.0313 46.9208L28.4367 40.5159C28.8731 40.0798 29.5806 40.0798 30.0166 40.5161C30.453 40.9523 30.4529 41.6598 30.0166 42.096L23.6113 48.501C23.3931 48.719 23.1071 48.8281 22.8213 48.8281Z" fill="white"/>
<path d="M58.6334 0.115845H22.2583C20.7174 0.115845 19.4642 1.37611 19.4642 2.92552V9.34199H5.36633C3.82536 9.34199 2.57178 10.6026 2.57178 12.1518V52.6286V53.3681V61.0747C2.57178 62.6241 3.82536 63.8842 5.36633 63.8842H41.7415C43.2821 63.8842 44.5354 62.6241 44.5354 61.0747V59.2592H58.6338C60.1745 59.2592 61.4279 57.9989 61.4279 56.4495V39.5777V19.7974V2.92552C61.4279 1.37615 60.1742 0.115845 58.6334 0.115845ZM42.465 61.0747C42.465 61.4823 42.1406 61.8138 41.7415 61.8138H5.36633C4.96719 61.8138 4.64203 61.4823 4.64203 61.0747V53.3681V52.6287V12.1518C4.64203 11.7444 4.96719 11.4125 5.36633 11.4125H19.4642H21.5346H34.2981V17.7635C34.2981 18.3383 34.7629 18.804 35.3363 18.804H42.465V52.6287V53.3681V57.1889V59.2593V61.0747ZM36.3749 16.7226V12.7207L40.7971 16.7226H36.3749ZM59.3575 39.5777V56.4496C59.3575 56.8572 59.0332 57.1888 58.6338 57.1888H44.5354V53.3681V52.6287V17.8205V17.7134C44.5206 17.404 44.3727 17.1295 44.1464 16.9486L42.465 15.4274L38.0285 11.4125L36.0322 9.60638C35.8536 9.44488 35.6291 9.35603 35.3988 9.34202H35.281H21.5346V2.92552C21.5346 2.5178 21.8591 2.18628 22.2583 2.18628H58.6334C59.0326 2.18628 59.3575 2.5178 59.3575 2.92552V19.7974V39.5777H59.3575Z" fill="white"/>
</svg>
